<svg width="96" height="96" xmlns="http://www.w3.org/2000/svg" xmlns:xlink="http://www.w3.org/1999/xlink" xml:space="preserve" overflow="hidden"><g transform="translate(-331 -150)"><path d="M411 216C410.948 213.495 409.773 211.145 407.8 209.6 403.4 206 397.8 203.6 392.2 202 387.922 200.69 383.474 200.016 379 200 374.531 200.077 370.092 200.75 365.8 202 360.207 203.632 354.932 206.202 350.2 209.6 348.227 211.145 347.052 213.495 347 216L347 232 411 232Z" fill="#118DFF"/><path d="M376 175.75C378.6 174.22 385 169.28 385 169.28L385 169.28C386.01 169.367 386.971 169.754 387.76 170.39 389.681 171.738 391.307 173.464 392.54 175.46 393.65 177.12 394.6 178.46 394.89 178.86L394.89 178.86 395 179 395 179C395.5 178 395.48 175.21 395.13 172.67 394.64 169.17 394.24 168.13 392 166.25 390.573 164.956 388.668 164.322 386.75 164.5 384.148 162.481 381.013 161.264 377.73 161 372.73 160.82 367.27 163.43 364.95 166.49 361.44 171.09 361.83 174.09 361.83 175.16 361.83 176.23 360.6 178.09 361.46 178.09 362.02 178.09 362.57 178.09 363.13 178.09L363.13 178.09C366.3 178 372.77 177.65 376 175.75Z" fill="#118DFF"/><path d="M393.42 180.17C393.37 180.1 392.27 178.57 390.93 176.58 389.829 174.775 388.369 173.216 386.64 172 386.303 171.755 385.937 171.553 385.55 171.4 383.77 172.75 379.19 176.19 377.01 177.46 373.55 179.46 367.24 179.99 363.01 180.08 363.12 188.916 370.371 195.99 379.207 195.88 387.099 195.783 393.741 189.944 394.85 182.13Z" fill="#118DFF"/></g></svg>