<svg width="96" height="96" xmlns="http://www.w3.org/2000/svg" xmlns:xlink="http://www.w3.org/1999/xlink" xml:space="preserve" overflow="hidden"><g transform="translate(-483 -150)"><path d="M563 216C562.948 213.495 561.773 211.145 559.8 209.6 555.4 206 549.8 203.6 544.2 202 539.922 200.69 535.474 200.016 531 200 526.531 200.077 522.092 200.75 517.8 202 512.207 203.632 506.932 206.202 502.2 209.6 500.227 211.145 499.052 213.495 499 216L499 232 563 232Z" fill="#DE6A73"/><path d="M548.11 191.6C547.19 188 550.71 179 550.74 172.66 550.74 167.59 549.3 165.32 546.58 163.78 545.01 162.89 541.39 163.71 541.39 163.71 541.39 163.71 539.52 160.17 533.26 158.22 528.116 156.82 522.627 157.521 518 160.17 514.13 162.67 512.26 165.42 512.17 174.88 512.09 183.55 513.28 191.25 512.73 194.88 512.476 196.889 511.712 198.8 510.51 200.43 510.51 200.43 516.51 201.2 519.86 199.43 521.546 198.299 523.144 197.042 524.64 195.67 519.508 193.276 515.766 188.65 514.5 183.13 514.37 182.65 513.5 179.51 514.89 177.75 515.65 176.75 517.39 176.47 520.29 175.96 523.761 175.503 527.149 174.55 530.35 173.13 533.948 171.321 537.285 169.033 540.27 166.33 540.664 165.943 541.297 165.947 541.684 166.341 541.831 166.49 541.928 166.682 541.96 166.89 542.198 168.535 542.77 170.114 543.64 171.53 544.048 172.052 544.55 172.493 545.12 172.83 545.785 173.228 546.358 173.764 546.8 174.4 547.522 175.809 547.931 177.358 548 178.94 547.935 186.237 543.599 192.819 536.92 195.76 538.18 196.87 539.83 198.24 541.65 199.56 544.65 201.73 551.9 198.73 551.9 198.73 551.9 198.73 549.56 197.33 548.11 191.6Z" fill="#DE6A73"/><path d="M546 179C545.947 177.791 545.654 176.605 545.14 175.51 544.847 175.096 544.464 174.754 544.02 174.51 543.255 174.049 542.578 173.457 542.02 172.76 541.215 171.602 540.635 170.302 540.31 168.93 537.518 171.274 534.464 173.287 531.21 174.93 527.832 176.433 524.255 177.443 520.59 177.93 518.9 178.23 516.79 178.6 516.43 178.98 515.83 179.76 516.14 181.75 516.43 182.59 518.14 189.8 524.26 195 531 195 539 195 546 187.52 546 179Z" fill="#DE6A73"/></g></svg>